<svg width="407" height="407" viewBox="0 0 407 407" fill="none" xmlns="http://www.w3.org/2000/svg">
<rect x="0.295898" y="85.9311" width="332.012" height="332.012" rx="43" transform="rotate(-15 0.295898 85.9311)" fill="#23425F"/>
<path d="M163.674 249.31L166.921 256.582C167.829 258.606 169.502 260.189 171.573 260.981L177.314 263.077L175.575 267.855C174.689 270.166 174.76 272.735 175.77 274.995C176.779 277.254 178.647 279.02 180.961 279.902L185.633 281.684L183.537 287.404V287.403C182.741 289.478 182.801 291.785 183.706 293.815L186.471 300.101C187.313 302.026 188.89 303.534 190.85 304.291L208.638 311.1C210.368 311.685 212.257 311.574 213.907 310.792C215.557 310.01 216.837 308.619 217.48 306.91L224.312 289.122C225.051 287.166 224.991 284.997 224.143 283.087L201.599 232.382C202.847 230.869 204.002 229.28 205.056 227.624C206.589 225.172 205.843 221.94 203.39 220.407C200.937 218.874 197.706 219.619 196.171 222.072C194.866 224.163 193.349 226.115 191.646 227.897C190.17 229.435 189.772 231.712 190.64 233.659L214.19 286.291L208.973 299.869L195.396 294.673L193.426 290.272L196.757 281.577H196.758C197.391 279.974 197.355 278.185 196.658 276.61C195.96 275.034 194.661 273.805 193.049 273.196L185.674 270.367L188.524 263.244C189.157 261.641 189.12 259.852 188.423 258.276C187.726 256.701 186.427 255.472 184.815 254.862L176.12 251.509L171.93 241.955C171.074 239.995 169.1 238.763 166.964 238.854C154.218 239.295 142.189 232.956 135.345 222.194C128.502 211.431 127.865 197.851 133.67 186.494C134.984 183.902 133.948 180.736 131.355 179.422C128.764 178.11 125.596 179.146 124.284 181.739C117.085 195.829 117.551 212.615 125.519 226.285C133.489 239.955 147.866 248.633 163.675 249.311L163.674 249.31Z" fill="white"/>
<path d="M164.325 202.837C172.582 208.234 182.189 211.208 192.051 211.419C201.915 211.631 211.64 209.07 220.122 204.031L228.188 209.311C230.082 210.564 232.389 211.029 234.62 210.611H234.829L242.498 209.018L243.839 215.43C244.379 218.008 245.919 220.267 248.123 221.708C250.329 223.151 253.015 223.658 255.593 223.119L262.005 221.777L263.576 229.384C264.053 231.676 265.416 233.687 267.369 234.978L273.884 239.168L273.886 239.169C275.229 240.053 276.802 240.527 278.411 240.53C278.981 240.533 279.549 240.476 280.109 240.363L301.585 236.005C303.482 235.608 305.144 234.472 306.205 232.85C307.266 231.226 307.639 229.248 307.243 227.351L302.779 205.876C302.33 203.721 301.041 201.836 299.197 200.638L245.431 165.394C247.017 152.899 244.072 140.25 237.131 129.738C230.188 119.228 219.712 111.553 207.597 108.105C195.482 104.655 182.533 105.663 171.097 110.942C159.662 116.221 150.496 125.422 145.262 136.879C140.029 148.336 139.074 161.29 142.57 173.39C146.068 185.492 153.785 195.939 164.324 202.837L164.325 202.837ZM157.871 135.661C165.06 124.64 176.98 117.607 190.103 116.641C203.226 115.676 216.047 120.891 224.771 130.742C233.495 140.593 237.122 153.949 234.578 166.859C234.169 168.948 235.063 171.076 236.842 172.244L292.722 208.911L296.367 226.364L278.913 230.009L273.717 226.616L271.475 215.825C271.123 214.089 270.088 212.567 268.603 211.601C267.117 210.635 265.306 210.308 263.576 210.692L253.916 212.788L251.82 203.129H251.822C251.464 201.413 250.439 199.911 248.973 198.952C247.507 197.993 245.721 197.657 244.007 198.016L233.342 200.174L223.012 193.405V193.407C221.245 192.218 218.933 192.218 217.166 193.407C206.351 200.869 192.675 202.867 180.175 198.811C167.676 194.754 157.78 185.106 153.407 172.714C149.035 160.322 150.685 146.601 157.87 135.598L157.871 135.661Z" fill="white"/>
<path d="M172.915 164.999C175.569 166.752 178.681 167.685 181.861 167.681C182.988 167.676 184.111 167.558 185.214 167.324C190.176 166.292 194.375 163.011 196.576 158.445C198.777 153.881 198.73 148.552 196.449 144.027C194.167 139.502 189.91 136.294 184.932 135.35C179.952 134.406 174.817 135.83 171.037 139.206C167.256 142.581 165.26 147.522 165.636 152.576C166.012 157.63 168.717 162.22 172.956 164.999L172.915 164.999ZM176.98 148.236C177.823 146.938 179.15 146.034 180.667 145.722C181.06 145.64 181.459 145.598 181.861 145.597C183.27 145.597 184.631 146.108 185.692 147.035C186.753 147.961 187.441 149.242 187.631 150.637C187.82 152.033 187.497 153.451 186.722 154.627C185.513 156.153 183.622 156.973 181.681 156.814C179.74 156.656 178.008 155.538 177.064 153.835C176.119 152.134 176.088 150.072 176.979 148.341L176.98 148.236Z" fill="white"/>
</svg>
