<svg width="250" height="51" viewBox="0 0 250 51" fill="none" xmlns="http://www.w3.org/2000/svg">
<path fill-rule="evenodd" clip-rule="evenodd" d="M12.105 16.8903C11.5192 11.9904 12.2638 8.17144 14.8522 5.18665C16.2398 3.58656 19.9994 2.32651 22.5794 5.33127C33.1117 -1.02914 42.9102 5.23078 46.6767 12.8949C50.7257 21.1338 47.817 36.4859 38.6909 40.5302C33.5085 42.827 27.9756 41.2739 28.498 35.065C28.5454 34.4996 29.0203 33.7673 29.7201 33.8848C30.0177 33.9347 30.7896 34.8432 31.056 34.8689C31.3333 34.8956 31.5615 34.7132 31.8906 34.6121C32.6275 34.3856 32.9622 34.8037 32.7728 35.3855C32.6363 35.8043 32.5033 36.3433 32.739 36.6647C33.158 37.2354 34.2713 37.9076 34.5997 35.6222C35.3197 30.6161 27.1971 29.7118 26.7464 35.3117C26.3037 40.8101 30.743 44.1139 36.1104 43.2613C35.31 45.8699 34.4611 48.7372 33.7775 50.7008C32.0807 50.7008 29.5176 50.7008 27.8206 50.7008C27.9315 45.4383 26.3771 45.8049 25.8219 50.7008C23.6234 50.7008 20.6921 50.7008 18.4933 50.7008C17.5606 49.1686 17.2608 47.6694 16.9611 46.1037C14.9086 46.6538 13.7632 48.4022 13.7632 50.7008C10.8556 50.7008 9.54714 50.7008 6.63953 50.7008C3.46088 46.3648 1.47797 39.7932 1.50259 33.6772C1.50725 32.5165 -0.0859651 35.2045 0.00364312 34.1809C0.337234 30.3717 2.95251 25.0176 4.44768 22.8983C6.63909 19.7917 8.79501 18.1612 12.105 16.8903Z" fill="#414BB3"/>
<path fill-rule="evenodd" clip-rule="evenodd" d="M9.26343 18.2454C10.1196 17.7337 11.054 17.2938 12.1049 16.8901C12.885 23.2315 15.8707 28.0967 20.4148 30.0413C15.286 31.2117 10.6087 25.1161 9.26343 18.2454Z" fill="#353D9B"/>
<path fill-rule="evenodd" clip-rule="evenodd" d="M35.6431 21.1735C34.3178 21.5443 32.9041 21.4758 31.7409 21.3793C31.0409 21.3214 30.8965 21.0211 30.8497 20.1396C30.6093 15.6062 35.5205 15.5082 35.6431 21.1735Z" fill="black"/>
<path fill-rule="evenodd" clip-rule="evenodd" d="M29.9027 2.78332C32.5859 2.73053 32.8236 0.239454 32.9969 0.000128715C33.2034 -0.0140667 34.0812 1.1484 33.9453 2.243C33.9453 2.243 34.9634 2.26518 35.6516 1.17102C35.6645 1.1504 36.9219 4.35833 33.3393 5.39104C31.859 5.81779 29.9173 3.27461 29.9027 2.78332Z" fill="#414BB3"/>
<path d="M186.548 27.3416C188.717 27.3416 190.469 27.9926 191.803 29.2944C193.138 30.5959 193.805 32.5269 193.805 35.087V45.11H188.728V35.8679C188.728 34.4792 188.424 33.4432 187.817 32.76C187.21 32.0764 186.331 31.7349 185.181 31.7349C183.901 31.7349 182.881 32.1308 182.122 32.9224C181.362 33.7142 180.983 34.8913 180.983 36.4535V45.1098H175.906V20.963H180.983V29.4241C181.655 28.7516 182.469 28.2366 183.423 27.8784C184.378 27.5202 185.42 27.3416 186.548 27.3416ZM174.307 44.2638C173.808 44.6327 173.195 44.9093 172.468 45.0936C171.742 45.2779 170.977 45.3702 170.174 45.3702C168.091 45.3702 166.481 44.8387 165.341 43.7759C164.202 42.7125 163.633 41.1506 163.633 39.0896V31.8977H160.932V27.9926H163.633V23.7293H168.71V27.9926H173.071V31.8977H168.71V39.0246C168.71 39.7623 168.9 40.3319 169.279 40.7332C169.659 41.1344 170.196 41.3351 170.89 41.3351C171.693 41.3351 172.376 41.1182 172.94 40.6844L174.307 44.2638ZM159.56 27.6018V45.11H154.744V43.0273C154.071 43.7865 153.269 44.367 152.336 44.7684C151.403 45.1699 150.394 45.3704 149.309 45.3704C147.01 45.3704 145.187 44.7088 143.842 43.3853C142.497 42.062 141.824 40.0986 141.824 37.4948V27.6018H146.901V36.7465C146.901 39.5669 148.084 40.9769 150.448 40.9769C151.663 40.9769 152.64 40.581 153.377 39.7894C154.115 38.9976 154.483 37.8205 154.483 36.2585V27.602H159.56V27.6018ZM132.285 36.2257L128.673 27.5042L125.06 36.2257H132.285ZM133.945 40.2286H123.368L121.35 45.11H115.948L126.101 22.33H131.308L141.494 45.11H135.962L133.945 40.2286ZM107.616 29.8473C105.967 29.8473 104.585 30.3734 103.467 31.4257C102.35 32.4777 101.715 33.8502 101.563 35.5423H113.702C113.55 33.8502 112.915 32.4779 111.798 31.4257C110.681 30.3734 109.287 29.8473 107.616 29.8473ZM115.882 37.2673H101.563C101.694 39.0464 102.377 40.4836 103.614 41.5791C104.85 42.6746 106.412 43.2225 108.3 43.2225C109.363 43.2225 110.339 43.0328 111.229 42.6531C112.118 42.2734 112.888 41.7149 113.539 40.9769L114.841 42.4741C114.082 43.385 113.133 44.0793 111.994 44.5568C110.854 45.0341 109.602 45.273 108.235 45.273C106.478 45.273 104.921 44.8986 103.565 44.15C102.209 43.4017 101.151 42.3656 100.392 41.0421C99.6323 39.7186 99.2528 38.2217 99.2528 36.5511C99.2528 34.8807 99.6164 33.3837 100.343 32.0602C101.07 30.7367 102.068 29.7065 103.337 28.9688C104.606 28.2313 106.033 27.8624 107.616 27.8624C109.2 27.8624 110.621 28.2313 111.88 28.9688C113.138 29.7065 114.125 30.7314 114.841 32.044C115.557 33.3567 115.915 34.8589 115.915 36.5511L115.882 37.2673ZM88.7729 27.8622C90.9208 27.8622 92.6292 28.4861 93.8985 29.7335C95.1677 30.9809 95.8023 32.798 95.8023 35.1843V45.11H93.4917V35.4121C93.4917 33.633 93.0468 32.2772 92.1574 31.3443C91.2677 30.4114 89.9986 29.9449 88.3499 29.9449C86.5056 29.9449 85.0466 30.4925 83.9729 31.5882C82.8989 32.6837 82.3619 34.1971 82.3619 36.1279V45.1098H80.0514V20.963H82.3619V30.9863C82.9912 29.9884 83.8591 29.2181 84.9654 28.6758C86.072 28.1334 87.3412 27.8622 88.7729 27.8622ZM67.4563 24.4125H59.4508V22.3298H77.8702V24.4125H69.8647V45.1098H67.4565V24.4125H67.4563Z" fill="white"/>
<path d="M244.728 22.3301H250V45.1101H244.728V22.3301ZM232.198 34.5337C233.782 34.5337 234.986 34.1919 235.81 33.5085C236.635 32.8251 237.047 31.8543 237.047 30.5958C237.047 29.3158 236.635 28.3341 235.81 27.6507C234.986 26.9673 233.782 26.6255 232.198 26.6255H227.902V34.5337H232.198ZM232.491 22.3301C234.509 22.3301 236.26 22.6663 237.746 23.3388C239.233 24.0116 240.377 24.966 241.18 26.2028C241.982 27.4393 242.384 28.9039 242.384 30.596C242.384 32.2666 241.982 33.7256 241.18 34.9731C240.377 36.2205 239.233 37.1751 237.746 37.8368C236.26 38.4984 234.508 38.8293 232.491 38.8293H227.902V45.1101H222.63V22.3301H232.491ZM212.443 36.2258L208.831 27.5043L205.219 36.2258H212.443ZM214.103 40.2287H203.527L201.509 45.1101H196.107L206.26 22.3301H211.467L221.653 45.1101H216.121L214.103 40.2287Z" fill="#414BB3"/>
</svg>
