<svg width="1205" height="241" viewBox="0 0 1205 241" fill="none" xmlns="http://www.w3.org/2000/svg">
<path d="M60.0394 148.75L62.5602 154.394C63.2647 155.965 64.5637 157.194 66.1714 157.809L70.6277 159.436L69.2777 163.144C68.5902 164.938 68.6446 166.932 69.4286 168.686C70.2125 170.44 71.6624 171.811 73.4583 172.496L77.0851 173.879L75.4583 178.319V178.318C74.84 179.929 74.8865 181.719 75.5887 183.295L77.7352 188.175C78.3886 189.669 79.6127 190.839 81.134 191.427L94.9418 196.713C96.2851 197.166 97.7508 197.08 99.0316 196.473C100.312 195.866 101.306 194.786 101.805 193.46L107.108 179.652C107.682 178.134 107.636 176.451 106.978 174.968L89.4782 135.609C90.447 134.435 91.3433 133.202 92.1613 131.916C93.3513 130.013 92.7727 127.504 90.8679 126.314C88.9643 125.124 86.4561 125.703 85.2647 127.606C84.2516 129.23 83.074 130.745 81.7523 132.128C80.6065 133.322 80.2979 135.089 80.9718 136.6L99.2516 177.455L95.2016 187.994L84.6634 183.961L83.1341 180.545L85.7196 173.796H85.7207C86.212 172.552 86.1836 171.163 85.6425 169.94C85.1013 168.717 84.0928 167.763 82.8414 167.29L77.1168 165.095L79.329 159.565C79.8203 158.321 79.7919 156.932 79.2508 155.709C78.7096 154.486 77.7011 153.532 76.4497 153.059L69.7008 150.457L66.4483 143.04C65.7835 141.519 64.2519 140.563 62.5934 140.633C52.6997 140.976 43.3628 136.055 38.05 127.701C32.7383 119.347 32.2437 108.805 36.7498 99.9904C37.7697 97.9778 36.9654 95.5204 34.9528 94.5007C32.9414 93.4819 30.4828 94.2863 29.4643 96.2988C23.8759 107.236 24.2378 120.266 30.423 130.877C36.6094 141.488 47.7693 148.224 60.0408 148.75L60.0394 148.75Z" fill="white"/>
<path d="M60.5446 112.676C66.9544 116.865 74.4114 119.174 82.0668 119.338C89.7233 119.502 97.2721 117.514 103.856 113.603L110.117 117.702C111.587 118.674 113.378 119.035 115.11 118.71H115.272L121.224 117.474L122.266 122.451C122.685 124.452 123.88 126.206 125.591 127.324C127.303 128.444 129.388 128.838 131.389 128.419L136.366 127.378L137.586 133.283C137.956 135.061 139.014 136.622 140.53 137.624L145.588 140.877L145.589 140.878C146.631 141.564 147.852 141.932 149.101 141.934C149.544 141.936 149.985 141.892 150.419 141.805L167.089 138.422C168.562 138.113 169.852 137.232 170.676 135.972C171.499 134.712 171.789 133.177 171.481 131.705L168.016 115.035C167.668 113.362 166.667 111.899 165.236 110.969L123.501 83.6118C124.732 73.913 122.446 64.0942 117.058 55.9349C111.669 47.7768 103.538 41.8187 94.1337 39.1424C84.73 36.465 74.6786 37.2467 65.8011 41.3444C56.925 45.442 49.8104 52.5848 45.7479 61.478C41.6854 70.3712 40.9445 80.4261 43.6582 89.8185C46.373 99.2121 52.3632 107.321 60.5439 112.676L60.5446 112.676ZM55.5348 60.5323C61.1153 51.9772 70.3681 46.518 80.5545 45.7681C90.741 45.0194 100.693 49.0671 107.464 56.7138C114.236 64.3604 117.052 74.7281 115.077 84.7491C114.759 86.3702 115.453 88.0222 116.834 88.9286L160.21 117.391L163.039 130.938L149.491 133.768L145.458 131.134L143.718 122.758C143.444 121.41 142.641 120.229 141.488 119.479C140.335 118.729 138.929 118.475 137.586 118.773L130.088 120.4L128.461 112.902H128.462C128.184 111.571 127.389 110.404 126.251 109.66C125.113 108.916 123.727 108.655 122.396 108.934L114.118 110.609L106.099 105.355V105.356C104.728 104.434 102.933 104.434 101.561 105.356C93.1664 111.148 82.5509 112.699 72.8477 109.551C63.1457 106.402 55.4642 98.913 52.0697 89.2938C48.6763 79.6745 49.9573 69.0239 55.5345 60.4836L55.5348 60.5323Z" fill="white"/>
<path d="M67.2128 83.3048C69.2731 84.6662 71.6883 85.39 74.157 85.3866C75.0317 85.3832 75.9029 85.2913 76.7595 85.1098C80.6111 84.3088 83.8703 81.762 85.5789 78.2179C87.2874 74.675 87.2511 70.5387 85.4802 67.0263C83.7093 63.5138 80.4044 61.0237 76.5405 60.291C72.6752 59.5581 68.6888 60.6631 65.7549 63.2838C62.8201 65.9033 61.2704 69.7392 61.5629 73.662C61.8544 77.5851 63.9544 81.1483 67.2442 83.305L67.2128 83.3048ZM70.3678 70.2933C71.0224 69.2859 72.0525 68.5837 73.2301 68.342C73.5353 68.2785 73.845 68.2456 74.157 68.2444C75.2506 68.2444 76.3068 68.6415 77.1304 69.3608C77.954 70.08 78.4883 71.0738 78.6358 72.1573C78.7822 73.2407 78.5314 74.3412 77.9302 75.2544C76.9919 76.4388 75.5239 77.0752 74.0172 76.9516C72.5106 76.8291 71.1663 75.9612 70.4333 74.6395C69.6993 73.319 69.6755 71.7181 70.3675 70.3749L70.3678 70.2933Z" fill="white"/>
<path d="M334.646 94.32H307.406V165H290.966V94.32H263.726V79.8H334.646V94.32ZM402.103 165H386.023V129.72C386.023 124.84 385.063 121.2 383.143 118.8C381.303 116.4 378.743 115.2 375.463 115.2C373.463 115.2 371.383 115.76 369.223 116.88C367.143 118 365.223 119.56 363.463 121.56C361.783 123.48 360.543 125.72 359.743 128.28V165H343.663V77.4H359.743V113.76C362.063 109.76 365.223 106.64 369.223 104.4C373.223 102.16 377.583 101.04 382.303 101.04C387.663 101.04 391.783 102.24 394.663 104.64C397.543 107.04 399.503 110.12 400.543 113.88C401.583 117.64 402.103 121.6 402.103 125.76V165ZM445.245 166.2C438.445 166.2 432.565 164.72 427.605 161.76C422.725 158.8 418.925 154.88 416.205 150C413.485 145.04 412.125 139.68 412.125 133.92C412.125 128 413.445 122.56 416.085 117.6C418.805 112.56 422.645 108.56 427.605 105.6C432.565 102.56 438.485 101.04 445.365 101.04C452.245 101.04 458.125 102.56 463.005 105.6C467.885 108.56 471.605 112.52 474.165 117.48C476.805 122.36 478.125 127.64 478.125 133.32C478.125 135.4 478.005 137.2 477.765 138.72H429.165C429.565 143.6 431.365 147.44 434.565 150.24C437.845 153.04 441.605 154.44 445.845 154.44C449.045 154.44 452.045 153.68 454.845 152.16C457.725 150.56 459.685 148.48 460.725 145.92L474.525 149.76C472.205 154.56 468.485 158.52 463.365 161.64C458.245 164.68 452.205 166.2 445.245 166.2ZM428.805 128.52H461.685C461.205 123.8 459.405 120 456.285 117.12C453.245 114.16 449.525 112.68 445.125 112.68C440.805 112.68 437.085 114.16 433.965 117.12C430.925 120 429.205 123.8 428.805 128.52ZM537.719 79.8H554.519L585.839 165H568.799L560.879 143.76H531.119L523.319 165H506.279L537.719 79.8ZM557.879 132.12L546.119 96.96L533.879 132.12H557.879ZM591.852 141.48V102.12H607.932V138C607.932 147.68 611.412 152.52 618.372 152.52C621.492 152.52 624.492 151.6 627.372 149.76C630.332 147.84 632.732 144.96 634.572 141.12V102.12H650.652V147C650.652 148.76 650.932 150 651.492 150.72C652.052 151.36 653.052 151.76 654.492 151.92V165C652.892 165.32 651.532 165.52 650.412 165.6C649.372 165.68 648.412 165.72 647.532 165.72C644.652 165.72 642.292 165.08 640.452 163.8C638.692 162.44 637.652 160.6 637.332 158.28L636.972 153.24C634.172 157.56 630.572 160.8 626.172 162.96C621.772 165.12 616.932 166.2 611.652 166.2C605.172 166.2 600.252 164.12 596.892 159.96C593.532 155.72 591.852 149.56 591.852 141.48ZM704.078 161.76C701.918 162.72 699.238 163.68 696.038 164.64C692.918 165.6 689.678 166.08 686.318 166.08C683.358 166.08 680.638 165.56 678.158 164.52C675.678 163.48 673.678 161.84 672.158 159.6C670.718 157.28 669.998 154.28 669.998 150.6V114.48H661.718V102.12H669.998V81.72H686.078V102.12H699.278V114.48H686.078V145.2C686.078 147.36 686.638 148.92 687.758 149.88C688.958 150.84 690.398 151.32 692.078 151.32C693.758 151.32 695.398 151.04 696.998 150.48C698.598 149.92 699.878 149.44 700.838 149.04L704.078 161.76ZM770.892 165H754.812V129.72C754.812 124.84 753.852 121.2 751.932 118.8C750.092 116.4 747.532 115.2 744.252 115.2C742.252 115.2 740.172 115.76 738.012 116.88C735.932 118 734.012 119.56 732.252 121.56C730.572 123.48 729.332 125.72 728.532 128.28V165H712.452V77.4H728.532V113.76C730.852 109.76 734.012 106.64 738.012 104.4C742.012 102.16 746.372 101.04 751.092 101.04C756.452 101.04 760.572 102.24 763.452 104.64C766.332 107.04 768.292 110.12 769.332 113.88C770.372 117.64 770.892 121.6 770.892 125.76V165ZM834.672 79.8H851.472L882.792 165H865.752L857.832 143.76H828.072L820.272 165H803.232L834.672 79.8ZM854.832 132.12L843.072 96.96L830.832 132.12H854.832ZM892.137 165V79.8H928.257C932.177 79.8 935.777 80.6 939.057 82.2C942.417 83.8 945.297 85.96 947.697 88.68C950.097 91.4 951.977 94.44 953.337 97.8C954.697 101.16 955.377 104.6 955.377 108.12C955.377 112.92 954.257 117.48 952.017 121.8C949.777 126.12 946.657 129.64 942.657 132.36C938.737 135.08 934.137 136.44 928.857 136.44H908.697V165H892.137ZM908.697 121.92H927.897C930.937 121.92 933.457 120.68 935.457 118.2C937.537 115.64 938.577 112.28 938.577 108.12C938.577 103.72 937.417 100.32 935.097 97.92C932.777 95.52 930.137 94.32 927.177 94.32H908.697V121.92ZM966.903 165V79.8H983.463V165H966.903Z" fill="white"/>
<path d="M334.646 94.32H307.406V165H290.966V94.32H263.726V79.8H334.646V94.32ZM402.103 165H386.023V129.72C386.023 124.84 385.063 121.2 383.143 118.8C381.303 116.4 378.743 115.2 375.463 115.2C373.543 115.2 371.503 115.76 369.343 116.88C367.183 118 365.223 119.56 363.463 121.56C361.783 123.48 360.543 125.72 359.743 128.28V165H343.663V77.4H359.743V113.76C362.063 109.76 365.223 106.64 369.223 104.4C373.223 102.16 377.583 101.04 382.303 101.04C386.383 101.04 389.703 101.76 392.263 103.2C394.823 104.56 396.823 106.44 398.263 108.84C399.703 111.16 400.703 113.8 401.263 116.76C401.823 119.64 402.103 122.64 402.103 125.76V165ZM445.245 166.2C440.205 166.2 435.645 165.36 431.565 163.68C427.485 161.92 424.005 159.56 421.125 156.6C418.245 153.56 416.005 150.12 414.405 146.28C412.885 142.36 412.125 138.24 412.125 133.92C412.125 127.92 413.445 122.44 416.085 117.48C418.805 112.52 422.645 108.56 427.605 105.6C432.645 102.56 438.565 101.04 445.365 101.04C452.245 101.04 458.125 102.56 463.005 105.6C467.885 108.56 471.605 112.52 474.165 117.48C476.805 122.36 478.125 127.64 478.125 133.32C478.125 134.28 478.085 135.28 478.005 136.32C477.925 137.28 477.845 138.08 477.765 138.72H429.165C429.485 141.92 430.405 144.72 431.925 147.12C433.525 149.52 435.525 151.36 437.925 152.64C440.405 153.84 443.045 154.44 445.845 154.44C449.045 154.44 452.045 153.68 454.845 152.16C457.725 150.56 459.685 148.48 460.725 145.92L474.525 149.76C473.005 152.96 470.805 155.8 467.925 158.28C465.125 160.76 461.805 162.72 457.965 164.16C454.125 165.52 449.885 166.2 445.245 166.2ZM428.805 128.52H461.685C461.365 125.32 460.445 122.56 458.925 120.24C457.485 117.84 455.565 116 453.165 114.72C450.765 113.36 448.085 112.68 445.125 112.68C442.245 112.68 439.605 113.36 437.205 114.72C434.885 116 432.965 117.84 431.445 120.24C430.005 122.56 429.125 125.32 428.805 128.52ZM537.719 79.8H554.519L585.839 165H568.799L560.879 143.76H531.119L523.319 165H506.279L537.719 79.8ZM557.879 132.12L546.119 96.96L533.879 132.12H557.879ZM591.852 141.48V102.12H607.932V138C607.932 142.8 608.812 146.44 610.572 148.92C612.332 151.32 614.932 152.52 618.372 152.52C620.452 152.52 622.492 152.12 624.492 151.32C626.572 150.44 628.452 149.16 630.132 147.48C631.892 145.8 633.372 143.68 634.572 141.12V102.12H650.652V147C650.652 148.68 650.932 149.88 651.492 150.6C652.132 151.32 653.132 151.76 654.492 151.92V165C652.892 165.24 651.532 165.4 650.412 165.48C649.372 165.64 648.412 165.72 647.532 165.72C644.652 165.72 642.292 165.08 640.452 163.8C638.692 162.44 637.652 160.6 637.332 158.28L636.972 153.24C634.172 157.48 630.572 160.72 626.172 162.96C621.772 165.12 616.932 166.2 611.652 166.2C605.172 166.2 600.252 164.12 596.892 159.96C593.532 155.72 591.852 149.56 591.852 141.48ZM704.078 161.76C702.718 162.32 701.078 162.96 699.158 163.68C697.238 164.4 695.158 164.96 692.918 165.36C690.758 165.84 688.558 166.08 686.318 166.08C683.358 166.08 680.638 165.56 678.158 164.52C675.678 163.48 673.678 161.84 672.158 159.6C670.718 157.28 669.998 154.28 669.998 150.6V114.48H661.718V102.12H669.998V81.72H686.078V102.12H699.278V114.48H686.078V145.2C686.158 147.36 686.758 148.92 687.878 149.88C688.998 150.84 690.398 151.32 692.078 151.32C693.758 151.32 695.398 151.04 696.998 150.48C698.598 149.92 699.878 149.44 700.838 149.04L704.078 161.76ZM770.892 165H754.812V129.72C754.812 124.84 753.852 121.2 751.932 118.8C750.092 116.4 747.532 115.2 744.252 115.2C742.332 115.2 740.292 115.76 738.132 116.88C735.972 118 734.012 119.56 732.252 121.56C730.572 123.48 729.332 125.72 728.532 128.28V165H712.452V77.4H728.532V113.76C730.852 109.76 734.012 106.64 738.012 104.4C742.012 102.16 746.372 101.04 751.092 101.04C755.172 101.04 758.492 101.76 761.052 103.2C763.612 104.56 765.612 106.44 767.052 108.84C768.492 111.16 769.492 113.8 770.052 116.76C770.612 119.64 770.892 122.64 770.892 125.76V165ZM834.672 79.8H851.472L882.792 165H865.752L857.832 143.76H828.072L820.272 165H803.232L834.672 79.8ZM854.832 132.12L843.072 96.96L830.832 132.12H854.832ZM892.137 165V79.8H928.257C932.177 79.8 935.777 80.6 939.057 82.2C942.337 83.8 945.177 85.96 947.577 88.68C950.057 91.4 951.977 94.44 953.337 97.8C954.697 101.16 955.377 104.6 955.377 108.12C955.377 112.92 954.257 117.48 952.017 121.8C949.777 126.12 946.697 129.64 942.777 132.36C938.857 135.08 934.217 136.44 928.857 136.44H908.697V165H892.137ZM908.697 121.92H927.897C929.897 121.92 931.697 121.36 933.297 120.24C934.897 119.12 936.177 117.52 937.137 115.44C938.097 113.28 938.577 110.84 938.577 108.12C938.577 105.16 938.017 102.64 936.897 100.56C935.857 98.48 934.457 96.92 932.697 95.88C931.017 94.84 929.177 94.32 927.177 94.32H908.697V121.92ZM966.903 165V79.8H983.463V165H966.903Z" fill="white"/>
<rect y="50.9293" width="196.776" height="196.776" rx="43" transform="rotate(-15 0 50.9293)" fill="white"/>
<path d="M96.8302 147.76L98.7549 152.07C99.2928 153.27 100.285 154.208 101.512 154.677L104.915 155.919L103.884 158.751C103.359 160.121 103.401 161.644 103.999 162.983C104.598 164.322 105.705 165.368 107.076 165.891L109.845 166.947L108.603 170.338V170.337C108.131 171.567 108.166 172.934 108.703 174.137L110.342 177.863C110.84 179.004 111.775 179.897 112.937 180.346L123.479 184.382C124.505 184.728 125.624 184.662 126.602 184.199C127.58 183.736 128.339 182.911 128.72 181.898L132.769 171.356C133.207 170.197 133.172 168.911 132.669 167.779L119.308 137.727C120.048 136.83 120.732 135.889 121.356 134.907C122.265 133.454 121.823 131.539 120.369 130.63C118.915 129.721 117 130.163 116.091 131.617C115.317 132.856 114.418 134.013 113.409 135.069C112.534 135.981 112.298 137.33 112.813 138.484L126.77 169.678L123.678 177.725L115.631 174.646L114.464 172.037L116.438 166.884H116.439C116.814 165.934 116.792 164.874 116.379 163.94C115.966 163.006 115.196 162.278 114.24 161.917L109.869 160.24L111.559 156.018C111.934 155.068 111.912 154.008 111.499 153.074C111.086 152.14 110.316 151.412 109.36 151.051L104.207 149.064L101.724 143.401C101.216 142.24 100.047 141.509 98.7803 141.563C91.226 141.825 84.0969 138.068 80.0404 131.689C75.9848 125.31 75.6071 117.261 79.0477 110.531C79.8264 108.994 79.2123 107.118 77.6756 106.339C76.1398 105.561 74.2626 106.176 73.4849 107.712C69.218 116.063 69.4943 126.012 74.2169 134.114C78.9405 142.216 87.4615 147.359 96.8312 147.76L96.8302 147.76Z" fill="#23425F"/>
<path d="M97.2161 120.217C102.11 123.416 107.804 125.178 113.649 125.303C119.495 125.429 125.259 123.911 130.286 120.924L135.066 124.054C136.189 124.796 137.556 125.072 138.878 124.824H139.002L143.547 123.88L144.343 127.68C144.662 129.208 145.575 130.547 146.881 131.401C148.189 132.256 149.781 132.557 151.309 132.237L155.109 131.442L156.04 135.951C156.322 137.309 157.131 138.501 158.288 139.266L162.15 141.749L162.15 141.75C162.946 142.274 163.879 142.555 164.832 142.556C165.17 142.558 165.507 142.524 165.839 142.458L178.567 139.875C179.691 139.639 180.676 138.966 181.305 138.004C181.934 137.042 182.155 135.87 181.92 134.746L179.275 122.018C179.009 120.741 178.245 119.623 177.152 118.913L145.286 98.0251C146.226 90.6197 144.48 83.1227 140.366 76.8928C136.252 70.6638 130.043 66.1145 122.863 64.0711C115.682 62.0268 108.008 62.6236 101.23 65.7524C94.4524 68.8811 89.0201 74.3349 85.9182 81.1252C82.8163 87.9154 82.2506 95.5927 84.3226 102.764C86.3955 109.937 90.9692 116.128 97.2155 120.217L97.2161 120.217ZM93.3908 80.4031C97.6518 73.8709 104.717 69.7027 112.494 69.1301C120.272 68.5584 127.871 71.649 133.041 77.4875C138.211 83.326 140.362 91.2421 138.853 98.8935C138.611 100.131 139.141 101.393 140.195 102.085L173.314 123.816L175.474 134.161L165.13 136.321L162.05 134.31L160.722 127.914C160.513 126.885 159.9 125.984 159.02 125.411C158.139 124.838 157.065 124.644 156.04 124.872L150.315 126.114L149.073 120.39H149.074C148.861 119.373 148.254 118.482 147.385 117.914C146.516 117.346 145.458 117.147 144.442 117.36L138.121 118.638L131.999 114.627V114.628C130.952 113.923 129.581 113.923 128.534 114.628C122.124 119.05 114.019 120.235 106.61 117.831C99.2021 115.426 93.337 109.708 90.7451 102.364C88.1542 95.0189 89.1322 86.8868 93.3906 80.3659L93.3908 80.4031Z" fill="#23425F"/>
<path d="M102.308 97.7908C103.881 98.8303 105.725 99.3829 107.61 99.3803C108.277 99.3777 108.943 99.3076 109.597 99.169C112.538 98.5574 115.026 96.6128 116.331 93.9068C117.635 91.2016 117.607 88.0434 116.255 85.3616C114.903 82.6797 112.38 80.7784 109.43 80.2189C106.478 79.6593 103.434 80.503 101.194 82.5041C98.9535 84.5042 97.7703 87.433 97.9936 90.4282C98.2162 93.4236 99.8196 96.1443 102.331 97.791L102.308 97.7908ZM104.716 87.8561C105.216 87.0869 106.003 86.5507 106.902 86.3662C107.135 86.3177 107.371 86.2926 107.61 86.2917C108.445 86.2917 109.251 86.5949 109.88 87.1441C110.509 87.6933 110.917 88.452 111.029 89.2793C111.141 90.1065 110.95 90.9468 110.491 91.6441C109.774 92.5484 108.653 93.0343 107.503 92.9399C106.353 92.8464 105.326 92.1837 104.766 91.1746C104.206 90.1663 104.188 88.944 104.716 87.9184L104.716 87.8561Z" fill="#23425F"/>
</svg>
